<svg id="visual" viewBox="0 0 900 600" width="900" height="600" xmlns="http://www.w3.org/2000/svg" xmlns:xlink="http://www.w3.org/1999/xlink" version="1.1"><rect x="0" y="0" width="900" height="600" fill="#000000"></rect><path d="M0 368L129 397L257 353L386 390L514 425L643 376L771 430L900 356L900 601L771 601L643 601L514 601L386 601L257 601L129 601L0 601Z" fill="#001122"></path><path d="M0 395L129 449L257 444L386 459L514 421L643 449L771 439L900 476L900 601L771 601L643 601L514 601L386 601L257 601L129 601L0 601Z" fill="#1e173a"></path><path d="M0 499L129 460L257 465L386 483L514 483L643 475L771 506L900 478L900 601L771 601L643 601L514 601L386 601L257 601L129 601L0 601Z" fill="#4c0e40"></path><path d="M0 481L129 494L257 488L386 531L514 523L643 503L771 534L900 522L900 601L771 601L643 601L514 601L386 601L257 601L129 601L0 601Z" fill="#74002d"></path><path d="M0 542L129 549L257 560L386 570L514 561L643 571L771 538L900 526L900 601L771 601L643 601L514 601L386 601L257 601L129 601L0 601Z" fill="#871400"></path></svg>